<svg xmlns="http://www.w3.org/2000/svg" width="419.384" height="324.792" viewBox="0 0 419.384 324.792">
  <g id="Group_185" data-name="Group 185" transform="translate(419.384 324.792) rotate(180)">
    <g id="Group_183" data-name="Group 183" transform="translate(0 0)">
      <path id="Path_481" data-name="Path 481" d="M.572,0A.33.33,0,0,0,.3.09.6.6,0,0,0,.034.808c.987,1.885,1.526,2.962,1.526,2.962a.565.565,0,0,0,.718.269.565.565,0,0,0,.269-.718L1.021.269A.494.494,0,0,0,.572,0Z" transform="translate(368.554 271.213)" fill="#057e72"/>
      <path id="Path_482" data-name="Path 482" d="M16.872,0H14.09a.579.579,0,0,0-.538.538.579.579,0,0,0,.538.538h6.731A.579.579,0,0,0,21.36.538.579.579,0,0,0,20.821,0ZM7.359.179h0C5.116.269,2.872.359.538.449A.6.6,0,0,0,0,1.077a.6.6,0,0,0,.628.538l6.731-.269A.579.579,0,0,0,7.9.808C7.9.359,7.718.179,7.359.179Zm20.283,0A.579.579,0,0,0,27.1.718a.579.579,0,0,0,.538.538l6.731.269A.656.656,0,0,0,35,.987a.656.656,0,0,0-.538-.628c-2.244,0-4.577-.09-6.821-.179ZM41.1.987a.517.517,0,0,0-.538.538.656.656,0,0,0,.538.628c2.244.18,4.487.359,6.731.628a.593.593,0,0,0,.628-.538.656.656,0,0,0-.538-.628c-2.244-.269-4.487-.449-6.821-.628ZM54.566,2.333a.5.5,0,0,0-.538.449c0,.269.179.628.449.628,2.244.269,4.487.538,6.641.9.269,0,.628-.18.628-.449s-.179-.628-.449-.628c-2.244-.359-4.487-.628-6.731-.9ZM67.938,4.308a.5.5,0,0,0-.538.449.527.527,0,0,0,.449.628c2.244.359,4.4.808,6.641,1.256a.546.546,0,0,0,.179-1.077c-2.244-.449-4.4-.808-6.641-1.256Zm13.193,2.6a.569.569,0,0,0-.538.449.478.478,0,0,0,.449.628c2.154.449,4.4.987,6.551,1.526a.6.6,0,1,0,.269-1.167c-2.154-.538-4.4-1.077-6.551-1.526C81.22,6.91,81.22,6.91,81.131,6.91Zm13.193,3.141a.569.569,0,0,0-.538.449.61.61,0,0,0,.359.718c2.154.628,4.4,1.167,6.462,1.795a.568.568,0,1,0,.359-1.077c-2.154-.628-4.308-1.256-6.551-1.795A.088.088,0,0,0,94.323,10.052Zm12.923,3.859a.55.55,0,0,0-.18,1.077c2.154.718,4.308,1.436,6.372,2.154a.568.568,0,1,0,.359-1.077l-6.462-2.154Zm12.744,4.4a.606.606,0,0,0-.538.359.536.536,0,0,0,.359.718c2.064.808,4.218,1.615,6.282,2.423a.542.542,0,1,0,.449-.987c-2.064-.808-4.218-1.615-6.282-2.423A.33.33,0,0,0,119.991,18.308Zm12.564,5.026a.558.558,0,0,0-.538.359.565.565,0,0,0,.269.718l6.192,2.692a.542.542,0,1,0,.449-.987c-2.064-.9-4.128-1.885-6.192-2.692C132.735,23.334,132.645,23.334,132.555,23.334Zm12.3,5.564a.558.558,0,0,0-.538.359.5.5,0,0,0,.269.718c1.974.987,4.039,1.974,6.013,3.051a.542.542,0,1,0,.449-.987c-1.974-.987-4.039-2.064-6.013-3.051A.313.313,0,0,0,144.85,28.9Zm12.026,6.193a.494.494,0,0,0-.449.269.47.47,0,0,0,.179.718c1.974,1.077,3.949,2.154,5.923,3.321a.585.585,0,0,0,.628-.987c-1.974-1.167-3.949-2.244-5.923-3.321Zm11.667,6.731a.494.494,0,0,0-.449.269.585.585,0,0,0,.18.808c1.885,1.167,3.859,2.333,5.744,3.59a.585.585,0,1,0,.628-.987c-1.885-1.167-3.859-2.423-5.744-3.59C168.723,41.911,168.633,41.822,168.543,41.822Zm11.4,7.359a.494.494,0,0,0-.449.269.585.585,0,0,0,.179.808c1.885,1.256,3.769,2.513,5.564,3.859a.575.575,0,1,0,.718-.9c-1.795-1.256-3.68-2.6-5.564-3.859C180.121,49.181,180.031,49.181,179.941,49.181Zm11.039,7.808a.494.494,0,0,0-.449.269.668.668,0,0,0,.09.808l5.385,4.039a.575.575,0,0,0,.718-.9c-1.795-1.346-3.59-2.782-5.385-4.128A.679.679,0,0,0,190.98,56.989Zm10.59,8.257a.685.685,0,0,0-.449.18.568.568,0,0,0,.09.808c1.705,1.436,3.5,2.872,5.205,4.308a.575.575,0,0,0,.718-.9c-1.705-1.436-3.5-2.962-5.205-4.308C201.839,65.335,201.75,65.245,201.57,65.245Zm10.321,8.8c-.179,0-.269.09-.449.179a.67.67,0,0,0,0,.808c1.705,1.526,3.321,3.051,4.936,4.577a.571.571,0,1,0,.808-.808c-1.615-1.526-3.321-3.051-5.026-4.577C212.16,74.13,211.981,74.041,211.891,74.041Zm9.782,9.244a.466.466,0,0,0-.359.179.67.67,0,0,0,0,.808c1.615,1.526,3.231,3.141,4.757,4.757a.571.571,0,0,0,.808-.808c-1.526-1.615-3.141-3.231-4.757-4.846C221.942,83.374,221.853,83.284,221.673,83.284Zm9.423,9.693a.466.466,0,0,0-.359.18.5.5,0,0,0,0,.808c1.526,1.615,3.051,3.321,4.487,5.026a.575.575,0,1,0,.9-.718c-1.526-1.705-3.051-3.41-4.577-5.026C231.366,93.067,231.276,92.977,231.1,92.977Zm8.975,10.141a.539.539,0,0,0-.359.09.568.568,0,0,0-.09.808c1.436,1.705,2.872,3.5,4.308,5.205a.575.575,0,1,0,.9-.718c-1.436-1.795-2.872-3.5-4.308-5.205A1.516,1.516,0,0,0,240.071,103.118Zm8.436,10.59a.54.54,0,0,0-.359.09.568.568,0,0,0-.09.808l4.039,5.385a.575.575,0,0,0,.9-.718c-1.346-1.795-2.692-3.68-4.039-5.475A3.889,3.889,0,0,1,248.507,113.708Zm7.9,10.949a.678.678,0,0,0-.359.09.585.585,0,0,0-.18.808c1.256,1.885,2.513,3.769,3.68,5.654a.585.585,0,0,0,.987-.628q-1.75-2.827-3.769-5.654C256.674,124.747,256.584,124.657,256.4,124.657Zm7.269,11.4a.33.33,0,0,0-.269.09.585.585,0,0,0-.18.808c1.167,1.974,2.333,3.859,3.41,5.834a.585.585,0,0,0,.987-.628c-1.077-1.974-2.244-3.859-3.41-5.833A.776.776,0,0,0,263.674,136.055Zm6.641,11.757a.33.33,0,0,0-.269.09.6.6,0,0,0-.269.718c1.077,1.974,2.064,4.039,3.051,6.013a.542.542,0,1,0,.987-.449c-.987-1.974-1.974-4.039-3.051-6.013A.458.458,0,0,0,270.316,147.812Zm5.923,12.205a.33.33,0,0,0-.269.09.5.5,0,0,0-.269.718c.9,2.064,1.795,4.128,2.6,6.192a.542.542,0,0,0,.987-.449c-.808-2.064-1.705-4.128-2.6-6.282A.493.493,0,0,0,276.239,160.018Zm4.936,12.475H281a.61.61,0,0,0-.359.718c.718,2.154,1.436,4.308,2.064,6.372a.568.568,0,1,0,1.077-.359c-.628-2.154-1.346-4.308-2.064-6.462A.767.767,0,0,0,281.175,172.492Zm3.949,13.013h-.09a.711.711,0,0,0-.449.718c.538,2.244.987,4.4,1.346,6.551.09.269.359.538.628.449s.538-.359.449-.628c-.359-2.154-.9-4.4-1.436-6.641A.481.481,0,0,0,285.124,185.505Zm-10.052,11.847a45.487,45.487,0,0,0-4.936.269.585.585,0,0,0,.09,1.167,41.062,41.062,0,0,1,6.641-.179.538.538,0,0,0,0-1.077A5.264,5.264,0,0,0,275.072,197.352Zm8.616.808a.5.5,0,0,0-.538.449.527.527,0,0,0,.449.628c1.077.18,2.244.449,3.321.718.179,2.064.269,4.128.269,6.1a.579.579,0,0,0,.539.538h0a.579.579,0,0,0,.538-.538c0-1.885-.09-3.769-.269-5.744a16.746,16.746,0,0,1,1.974.628.568.568,0,1,0,.359-1.077,20.529,20.529,0,0,0-2.513-.718c-.09-.179-.359-.359-.539-.269a.33.33,0,0,0-.269.09c-1.077-.269-2.244-.538-3.321-.718C283.778,198.16,283.778,198.16,283.688,198.16Zm-20.1.628h-.18a41.971,41.971,0,0,0-6.462,2.064.542.542,0,1,0,.449.987,58.961,58.961,0,0,1,6.372-2.064.711.711,0,0,0,.449-.718A1.026,1.026,0,0,0,263.585,198.788Zm32.937,3.41a.558.558,0,0,0-.538.359.565.565,0,0,0,.269.718c1.974.9,3.949,1.885,6.013,3.051a.585.585,0,0,0,.628-.987,55.3,55.3,0,0,0-6.1-3.051A.33.33,0,0,0,296.522,202.2ZM251.2,203.9a.33.33,0,0,0-.269.09,25.741,25.741,0,0,0-5.3,4.308.571.571,0,1,0,.808.808,23.428,23.428,0,0,1,5.116-4.128.585.585,0,0,0,.179-.808A.776.776,0,0,0,251.2,203.9Zm57.079,4.936a.494.494,0,0,0-.449.269.585.585,0,0,0,.18.808c1.795,1.256,3.59,2.6,5.385,3.949a.575.575,0,1,0,.718-.9c-1.795-1.436-3.68-2.782-5.474-4.039A.54.54,0,0,0,308.278,208.839Zm-20.821,3.41a.5.5,0,0,0-.538.449,36.8,36.8,0,0,1-1.346,6.551.568.568,0,1,0,1.077.359A37.227,37.227,0,0,0,288,212.878a.656.656,0,0,0-.538-.628ZM242.046,213.6a.558.558,0,0,0-.538.359,21.062,21.062,0,0,0-1.974,6.641c0,.269.18.628.449.628.359,0,.628-.18.628-.449a19.535,19.535,0,0,1,1.885-6.282.5.5,0,0,0-.269-.718C242.225,213.6,242.135,213.6,242.046,213.6Zm76.823,3.59c-.179,0-.269.09-.449.179a.67.67,0,0,0,0,.808c1.615,1.436,3.231,3.051,4.846,4.667a.571.571,0,0,0,.808-.808c-1.615-1.615-3.321-3.231-4.936-4.667C319.138,217.276,319.048,217.186,318.868,217.186Zm-35.45,7.9a.776.776,0,0,0-.538.269c-1.077,2.064-2.154,4.039-3.321,5.833a.585.585,0,0,0,.987.628,60.62,60.62,0,0,0,3.41-5.923.5.5,0,0,0-.269-.718A.33.33,0,0,0,283.419,225.084Zm45.053,1.705a.466.466,0,0,0-.359.179.5.5,0,0,0,0,.808c1.436,1.615,2.962,3.321,4.4,5.026a.575.575,0,1,0,.9-.718c-1.436-1.795-2.962-3.5-4.487-5.116A.494.494,0,0,0,328.471,226.789Zm-88.131,0h-.09c-.269.09-.538.359-.449.628a24.62,24.62,0,0,0,2.244,6.551.542.542,0,1,0,.987-.449,25.354,25.354,0,0,1-2.154-6.192A.517.517,0,0,0,240.34,226.789ZM275.97,236.3c-.18,0-.269.09-.449.179a31.6,31.6,0,0,1-4.936,4.4.575.575,0,1,0,.718.9,30.227,30.227,0,0,0,5.116-4.577.67.67,0,0,0,0-.808A.809.809,0,0,0,275.97,236.3Zm61.207.808a.54.54,0,0,0-.359.09.568.568,0,0,0-.09.808c1.346,1.705,2.692,3.59,4.039,5.385a.575.575,0,0,0,.9-.718q-2.019-2.827-4.039-5.385A.686.686,0,0,0,337.177,237.11Zm-90.644,1.526a.466.466,0,0,0-.359.179.566.566,0,0,0,0,.808,19.116,19.116,0,0,0,5.564,4.128.542.542,0,0,0,.449-.987,19.964,19.964,0,0,1-5.205-3.949A1.516,1.516,0,0,0,246.533,238.635Zm18.4,5.205h-.179a15.924,15.924,0,0,1-5.026.808h0a7.721,7.721,0,0,1-1.436-.09.585.585,0,1,0-.09,1.167,9.23,9.23,0,0,0,1.526.09,18.657,18.657,0,0,0,5.385-.808.61.61,0,0,0,.359-.718A.5.5,0,0,0,264.931,243.84Zm80.233,4.218a.678.678,0,0,0-.359.09.585.585,0,0,0-.18.808c1.256,1.795,2.513,3.769,3.68,5.654a.585.585,0,1,0,.987-.628l-3.769-5.654C345.523,248.148,345.343,248.059,345.164,248.059Zm7.269,11.308a.33.33,0,0,0-.269.09.585.585,0,0,0-.18.808c1.167,1.974,2.333,3.949,3.41,5.833a.566.566,0,0,0,.808.179.585.585,0,0,0,.18-.808c-1.077-1.974-2.244-3.949-3.41-5.833C352.792,259.546,352.613,259.367,352.433,259.367Z" transform="translate(10.052)" fill="#057e72"/>
      <path id="Path_483" data-name="Path 483" d="M3.949,0h0C2.782.09,1.705.18.538.269A.6.6,0,0,0,0,.9a.6.6,0,0,0,.628.538c1.077-.09,2.244-.18,3.321-.269A.6.6,0,0,0,4.487.538.579.579,0,0,0,3.949,0Z" transform="translate(0 0.808)" fill="#057e72"/>
    </g>
    <g id="Group_184" data-name="Group 184" transform="translate(329.369 243.212)">
      <path id="Path_484" data-name="Path 484" d="M27.462,0,0,5.923,90.015,48.912Z" transform="translate(0 32.668)" fill="#f05757"/>
      <path id="Path_485" data-name="Path 485" d="M0,22.8,1.615,0,10.59,15.526,62.553,71.707Z" transform="translate(27.462 9.872)" fill="#d2373a"/>
      <path id="Path_486" data-name="Path 486" d="M0,0,16.244,8.8,8.975,15.526Z" transform="translate(29.078 9.872)" fill="#b32d2f"/>
      <path id="Path_487" data-name="Path 487" d="M0,25.4,20.372,0,51.963,81.579Z" transform="translate(38.052 0)" fill="#f05757"/>
    </g>
  </g>
</svg>
